<?xml version="1.0" encoding="UTF-8" standalone="no"?>
<!-- Created with Inkscape (http://www.inkscape.org/) -->

<svg
   version="1.1"
   id="svg1"
   width="530"
   height="500"
   viewBox="0 0 530 500"
   xmlns="http://www.w3.org/2000/svg"
   xmlns:svg="http://www.w3.org/2000/svg">
  <defs
     id="defs1" />
  <g
     id="g1">
    <path
       style="fill:#008080;stroke:none"
       d="M 252,18.424377 C 199.30878,25.342712 151.51848,39.588074 111,76.169769 2.8618011,173.80121 9.1115799,352.23273 129,438.14044 c 22.73413,16.29047 47.99982,28.40445 75,35.70831 30.36073,8.21296 61.89523,9.95972 93,5.8696 C 413.07687,464.4549 502.07993,357.89819 496.96063,241 492.46057,138.24152 419.75201,49.442291 320,24.626556 298.75098,19.340332 273.87247,15.552551 252,18.424377 M 401,122 294,218.28549 271,239 C 259.70114,205.60101 244.70235,165.85245 217,142.43906 189.73465,119.39499 143.02782,117.9863 120.48997,149 92.93541,186.91705 100.8389,259.64072 158,263.48535 193.69415,265.88611 234.63675,230.53067 218.92902,193 c -11.41686,-27.27841 -53.53164,-30.98599 -64.93442,-1 -4.90001,12.88559 7.31788,29.77405 21.0054,29.10339 3.93494,-0.19281 13.03459,-4.55642 9.33797,-9.70526 -4.04378,-5.63235 -12.11426,-1.13678 -13.71529,-10.39813 -2.02168,-11.6947 13.09374,-18.30222 22.36266,-13.54321 14.84881,7.62393 13.74127,35.30859 4.3341,46.37344 C 177.26541,257.41806 136.35774,252.37094 125.54861,222 111.92111,183.71014 134.49393,135.37033 179,141.72916 c 6.19548,0.88519 12.45442,2.11038 18,5.17593 25.87709,14.30469 39.65836,51.02432 49.57562,77.09491 2.56784,6.75037 10.81076,20.84749 8.72762,27.99614 -1.21756,4.17824 -6.2105,7.20918 -9.30324,9.95369 -8.66809,7.69211 -17.73312,14.96988 -27,21.92364 -23.47668,17.61658 -44.98845,37.87781 -68,56.12345 C 140.38837,348.41077 128.07156,359.83472 115,364 47.564606,269.84625 74.590454,134.57513 181,81.370361 235.10324,54.318726 302.03406,55.622925 355,84.694427 370.20383,93.039368 393.40076,105.70413 401,122 m 12,11 c 12.96527,20.81961 25.74023,40.05734 32.57251,64 C 467.39774,273.48325 438.99426,357.12524 374,403.57254 317.21005,444.15668 238.49026,449.42532 177,416.30786 160.01004,407.15741 134.47815,393.18042 126,375 L 152,357.19446 235,291.57483 264,269 c 10.74411,33.01953 24.44522,79.28772 55,99.13501 25.16513,16.34637 61.54651,18.28979 82.78705,-6.14966 12.42898,-14.30087 16.37582,-35.71533 15.12344,-53.98535 -3.23953,-47.25983 -73.58526,-61.87331 -89.80942,-15 -12.22873,35.33008 34.37436,61.13696 53.48148,26 4.44849,-8.18051 3.12277,-20.69305 -4.62576,-26.48688 C 368.64734,287.04761 356.77539,288.80035 356,299 c 21.45486,4.15125 7.7832,30.61829 -7.81482,19.99072 -9.48657,-6.46356 -7.78918,-26.19122 -0.91049,-33.8858 9.48108,-10.60559 27.6376,-11.23117 38.72531,-3.74536 23.71756,16.01282 22.71249,56.95837 1.90973,75.17285 C 378.16638,365.06348 363.42157,366.77112 351,364.53549 314.60278,357.9848 300.9664,316.94171 289.20294,287 c -2.76871,-7.04724 -13.11978,-24.75366 -10.08182,-32 5.17569,-12.3454 23.30585,-23.10541 32.87888,-32.02469 23.2048,-21.62009 47.20901,-42.28601 71,-63.2608 9.37616,-8.26627 18.65198,-21.42258 30,-26.71451 z"
       id="path1" />
  </g>
</svg>
